Coordinates
version=1
nRows=26
nColumns=24
inDegrees=yes

Units are S.I. units (second, meters, Newtons, ...)
Angles are in degrees.

endheader
time	pelvis_tilt	pelvis_list	pelvis_rotation	pelvis_tx	pelvis_ty	pelvis_tz	hip_flexion_r	hip_adduction_r	hip_rotation_r	knee_angle_r	ankle_angle_r	subtalar_angle_r	mtp_angle_r	hip_flexion_l	hip_adduction_l	hip_rotation_l	knee_angle_l	ankle_angle_l	subtalar_angle_l	mtp_angle_l	lumbar_extension	lumbar_bending	lumbar_rotation
      5.59000000	     62.93803301	      5.60758086	     -1.59854315	      0.56026004	      0.99964991	     -0.28865369	     -7.59638558	    -15.22593236	     11.45242266	    -50.15140199	    -32.80003699	     19.91658852	   -259.09731725	     -7.01032612	     -6.20843239	      1.66090929	    -52.84259700	     -2.93283298	     10.02145879	    -29.08919945	      0.00000000	      0.00000000	      0.00000000
      5.60000000	     62.88376807	      5.59440852	     -1.62264778	      0.56027472	      0.99958583	     -0.28863906	     -7.50813678	    -15.42670303	     11.56472073	    -50.78268159	    -32.92888323	     19.72979483	   -258.78515682	     -6.94188491	     -6.21518267	      1.66995109	    -52.85704352	     -3.00015419	     10.05191428	    -29.14092999	      0.00000000	      0.00000000	      0.00000000
      5.61000000	     62.82198386	      5.58037284	     -1.64760526	      0.56028365	      0.99951551	     -0.28860624	     -7.40767409	    -15.62185156	     11.68867955	    -51.39616303	    -33.03560461	     19.54274047	   -258.51592824	     -6.86465589	     -6.22247843	      1.67241176	    -52.86970217	     -3.07863698	     10.07996064	    -29.20739893	      0.00000000	      0.00000000	      0.00000000
      5.62000000	     62.75911972	      5.56560055	     -1.67543668	      0.56028461	      0.99944077	     -0.28857425	     -7.30418720	    -15.81247212	     11.82024461	    -51.98978023	    -33.12097646	     19.35660432	   -258.28935494	     -6.78910712	     -6.22806270	      1.66968205	    -52.88064093	     -3.15866161	     10.10137092	    -29.27942362	      0.00000000	      0.00000000	      0.00000000
      5.63000000	     62.70134619	      5.55068493	     -1.70714284	      0.56028098	      0.99936408	     -0.28855378	     -7.20562472	    -15.99981224	     11.95827094	    -52.56022189	    -33.18846811	     19.17380621	   -258.10187601	     -6.72376322	     -6.23110346	      1.66425124	    -52.88985741	     -3.23071952	     10.11380101	    -29.34732719	      0.00000000	      0.00000000	      0.00000000
      5.64000000	     62.65368508	      5.53592340	     -1.74172706	      0.56027946	      0.99929599	     -0.28853541	     -7.11727206	    -16.18482933	     12.10404711	    -53.10304118	    -33.24329707	     18.99769963	   -257.94675734	     -6.67358767	     -6.23163240	      1.65855048	    -52.89751300	     -3.28740796	     10.11721600	    -29.40339345	      0.00000000	      0.00000000	      0.00000000
      5.65000000	     62.61853194	      5.52145711	     -1.77757484	      0.56028049	      0.99924002	     -0.28851288	     -7.04180906	    -16.36708879	     12.25912372	    -53.61359541	    -33.29060549	     18.83162638	   -257.81469890	     -6.63943427	     -6.22999389	      1.65417673	    -52.90401751	     -3.32458547	     10.11347202	    -29.44392229	      0.00000000	      0.00000000	      0.00000000
      5.66000000	     62.59494758	      5.50740341	     -1.81357548	      0.56027577	      0.99918859	     -0.28849135	     -6.97948668	    -16.54443298	     12.42341084	    -54.08804994	    -33.33379661	     18.67784243	   -257.69495924	     -6.61895664	     -6.22662893	      1.65160367	    -52.91000066	     -3.34162682	     10.10536944	    -29.47042917	      0.00000000	      0.00000000	      0.00000000
      5.67000000	     62.57962829	      5.49367786	     -1.84891146	      0.56026470	      0.99913519	     -0.28847597	     -6.92812210	    -16.71389854	     12.59477457	    -54.52383673	    -33.37391200	     18.53682674	   -257.57683620	     -6.60805792	     -6.22230146	      1.65030206	    -52.91598475	     -3.34104560	     10.09560392	    -29.48972047	      0.00000000	      0.00000000	      0.00000000
      5.68000000	     62.56834540	      5.47981742	     -1.88259625	      0.56025715	      0.99908431	     -0.28846523	     -6.88392050	    -16.87312238	     12.76978186	    -54.91975459	    -33.41007037	     18.40708992	   -257.45114049	     -6.60204262	     -6.21848057	      1.64910673	    -52.92187052	     -3.32780153	     10.08597577	    -29.51279629	      0.00000000	      0.00000000	      0.00000000
      5.69000000	     62.55686694	      5.46512774	     -1.91354123	      0.56025550	      0.99904640	     -0.28845153	     -6.84300405	    -17.02114050	     12.94465409	    -55.27576313	    -33.44047512	     18.28537304	   -257.31133117	     -6.59651608	     -6.21731901	      1.64663801	    -52.92675040	     -3.30849981	     10.07705484	    -29.55274727	      0.00000000	      0.00000000	      0.00000000
      5.70000000	     62.54180611	      5.44933365	     -1.94105096	      0.56025021	      0.99901682	     -0.28842861	     -6.80244457	    -17.15784269	     13.11576667	    -55.59229782	    -33.46349567	     18.16721395	   -257.15418454	     -6.58813298	     -6.22092708	      1.64164951	    -52.92927624	     -3.29052306	     10.06831525	    -29.62199103	      0.00000000	      0.00000000	      0.00000000
      5.71000000	     62.52185441	      5.43276803	     -1.96505507	      0.56023525	      0.99897618	     -0.28839673	     -6.76054379	    -17.28315325	     13.28000172	    -55.86964918	    -33.47851215	     18.04792910	   -256.98002837	     -6.57463913	     -6.23038344	      1.63333787	    -52.92812764	     -3.28100590	     10.05860815	    -29.72932612	      0.00000000	      0.00000000	      0.00000000
      5.72000000	     62.49841466	      5.41571186	     -1.98585387	      0.56021850	      0.99891855	     -0.28835963	     -6.71691057	    -17.39702335	     13.43523473	    -56.10790275	    -33.48634234	     17.92392721	   -256.79262774	     -6.55447277	     -6.24524169	      1.62169582	    -52.92239761	     -3.28558145	     10.04677342	    -29.87736346	      0.00000000	      0.00000000	      0.00000000
      5.73000000	     62.47433729	      5.39816633	     -2.00388932	      0.56021336	      0.99885699	     -0.28832282	     -6.67239407	    -17.49960188	     13.58048221	    -56.30699675	    -33.48917763	     17.79403239	   -256.59879474	     -6.52726510	     -6.26386357	      1.60778398	    -52.91230696	     -3.30703909	     10.03220819	    -30.06089635	      0.00000000	      0.00000000	      0.00000000
      5.74000000	     62.45143878	      5.38050358	     -2.01947562	      0.56021561	      0.99879925	     -0.28829033	     -6.62854836	    -17.59102463	     13.71551205	    -56.46635031	    -33.49014096	     17.66031951	   -256.40773741	     -6.49532662	     -6.28418900	      1.59351461	    -52.90009556	     -3.34432110	     10.01527249	    -30.26665291	      0.00000000	      0.00000000	      0.00000000
      5.75000000	     62.43000304	      5.36380642	     -2.03258894	      0.56020497	      0.99874440	     -0.28825857	     -6.58702495	    -17.67136123	     13.84028071	    -56.58428880	    -33.49278637	     17.52811227	   -256.23016390	     -6.46315606	     -6.30442074	      1.58083358	    -52.88950427	     -3.39242714	      9.99746113	    -30.47462560	      0.00000000	      0.00000000	      0.00000000
      5.76000000	     62.41042916	      5.34923604	     -2.04325734	      0.56017421	      0.99869303	     -0.28821801	     -6.54971990	    -17.74096768	     13.95443122	    -56.65790643	    -33.50075177	     17.40515064	   -256.07719323	     -6.43434214	     -6.32325724	      1.57080979	    -52.88367273	     -3.44347540	      9.98128290	    -30.66083408	      0.00000000	      0.00000000	      0.00000000
      5.77000000	     62.39366217	      5.33706096	     -2.05198674	      0.56013360	      0.99864106	     -0.28816528	     -6.51923176	    -17.80080616	     14.05710391	    -56.68365045	    -33.51730177	     17.30002715	   -255.95904350	     -6.40976909	     -6.33959396	      1.56335353	    -52.88380953	     -3.48857500	      9.96982048	    -30.80104247	      0.00000000	      0.00000000	      0.00000000
      5.78000000	     62.38049317	      5.32642866	     -2.05964240	      0.56009957	      0.99858855	     -0.28811908	     -6.49845135	    -17.85224812	     14.14725450	    -56.65847375	    -33.54435259	     17.22005438	   -255.88346541	     -6.38842716	     -6.35229247	      1.55787717	    -52.88958894	     -3.51982492	      9.96603148	    -30.87473606	      0.00000000	      0.00000000	      0.00000000
      5.79000000	     62.37106169	      5.31624878	     -2.06675587	      0.56008278	      0.99854867	     -0.28810608	     -6.48920538	    -17.89620391	     14.22417611	    -56.58110401	    -33.58119393	     17.16922878	   -255.85420829	     -6.36957932	     -6.36034290	      1.55423543	    -52.90051014	     -3.53181959	      9.97195927	    -30.86864047	      0.00000000	      0.00000000	      0.00000000
      5.80000000	     62.36485843	      5.30640776	     -2.07302292	      0.56007967	      0.99853150	     -0.28812640	     -6.49132146	    -17.93224798	     14.28776132	    -56.45290470	    -33.62378109	     17.14734303	   -255.87009907	     -6.35428667	     -6.36335396	      1.55311113	    -52.91687527	     -3.52248826	      9.98809808	    -30.77918781	      0.00000000	      0.00000000	      0.00000000
      5.81000000	     62.36134474	      5.29800090	     -2.07777360	      0.56008184	      0.99853503	     -0.28815807	     -6.50328903	    -17.95877299	     14.33834013	    -56.27793120	    -33.66529780	     17.15082615	   -255.92515980	     -6.34463579	     -6.36210209	      1.55555862	    -52.93926778	     -3.49339288	     10.01313351	    -30.61351769	      0.00000000	      0.00000000	      0.00000000
      5.82000000	     62.36035552	      5.29201411	     -2.08042139	      0.56008095	      0.99854751	     -0.28818224	     -6.52375833	    -17.97424758	     14.37631692	    -56.06194438	    -33.69790223	     17.17489907	   -256.00973820	     -6.34212289	     -6.35842875	      1.56181724	    -52.96715417	     -3.44947210	     10.04415696	    -30.38880814	      0.00000000	      0.00000000	      0.00000000
      5.83000000	     62.36263634	      5.28800532	     -2.08059310	      0.56007365	      0.99855682	     -0.28819199	     -6.55248925	    -17.97819508	     14.40186234	    -55.81065220	    -33.71492459	     17.21598478	   -256.11226491	     -6.34638459	     -6.35450079	      1.57035442	    -52.99766061	     -3.39820976	     10.07729109	    -30.12996076	      0.00000000	      0.00000000	      0.00000000
      5.84000000	     62.36997277	      5.28461376	     -2.07850714	      0.56006933	      0.99856115	     -0.28819327	     -6.59023996	    -17.97072050	     14.41486241	    -55.52772540	    -33.71264622	     17.27335618	   -256.22117828	     -6.35535650	     -6.35203039	      1.57824954	    -53.02582883	     -3.34830794	     10.10852914	    -29.86593166	      0.00000000	      0.00000000	      0.00000000
